<svg width="48" height="48" viewBox="0 0 48 48" fill="none" xmlns="http://www.w3.org/2000/svg">
<g clip-path="url(#clip0_2_21)">
<path d="M0 23.04C0 12.24 0 6.72 3.36 3.36C6.72 0 12.24 0 23.04 0H24.96C35.76 0 41.28 0 44.64 3.36C48 6.72 48 12.24 48 23.04V24.96C48 35.76 48 41.28 44.64 44.64C41.28 48 35.76 48 24.96 48H23.04C12.24 48 6.72 48 3.36 44.64C0 41.28 0 35.76 0 24.96V23.04Z" fill="#0077FF"/>
<path d="M25.68 34.32C14.88 34.32 8.40003 26.88 8.16003 14.4H13.68C13.68 23.52 18 27.36 21.12 28.32V14.4H26.4V22.32C29.52 22.08 32.64 18.48 33.6 14.4H38.88C38.16 19.2 34.56 22.8 32.16 24.48C34.56 25.68 38.64 28.8 40.08 34.32H34.56C33.36 30.48 30.24 27.6 26.4 27.12V34.32H25.68Z" fill="white"/>
</g>
<defs>
<clipPath id="clip0_2_21">
<rect width="48" height="48" fill="white"/>
</clipPath>
</defs>
</svg>
